<?xml version="1.0" encoding="utf-8"?>
<!-- Generator: Adobe Illustrator 24.1.2, SVG Export Plug-In . SVG Version: 6.00 Build 0)  -->
<svg version="1.1" id="Layer_1" xmlns="http://www.w3.org/2000/svg" xmlns:xlink="http://www.w3.org/1999/xlink" x="0px" y="0px"
	 viewBox="0 0 234.36 233.92" style="enable-background:new 0 0 234.36 233.92;" xml:space="preserve">
<style type="text/css">
	.st0{fill:#1994D3;}
</style>
<g>
	<path class="st0" d="M218.26,106.97c-0.05,16.82-3.82,32.74-11.96,47.48c-1.86,3.38-1.9,6.33-0.94,9.8
		c3.48,12.58,6.86,25.18,10.19,37.8c0.3,1.14,1.54,2.53,0.32,3.55c-1.07,0.9-2.46-0.1-3.67-0.42c-13.16-3.51-26.34-6.97-39.46-10.64
		c-2.6-0.73-4.61-0.33-6.9,0.9c-56.64,30.13-124.84,3.3-144.41-57.72C9.9,101.78,17.22,68.6,42.1,40.08
		c20.34-23.3,46.69-34.25,77.48-34.01c49.63,0.4,92.86,40.02,97.94,89.3C217.92,99.24,218.23,103.09,218.26,106.97z M162.94,124.15
		c10.02,0.22,17.92-7.16,18.03-16.85c0.11-9.5-7.48-17.39-16.97-17.65c-9.44-0.25-17.52,7.34-17.88,16.79
		C145.77,115.87,153.43,123.94,162.94,124.15z M71.14,124.16c9.74,0,17.42-7.5,17.44-17.02c0.02-9.67-7.92-17.54-17.59-17.46
		c-9.42,0.09-17.41,8.13-17.26,17.39C53.88,116.71,61.46,124.16,71.14,124.16z M134.57,106.94c-0.04-9.89-7.69-17.4-17.56-17.29
		c-9.48,0.11-16.97,7.88-16.91,17.55c0.05,9.57,7.69,17,17.42,16.96C127.31,124.12,134.61,116.76,134.57,106.94z"/>
</g>
</svg>
